<svg xmlns="http://www.w3.org/2000/svg" width="400" height="300" viewBox="0 0 400 300">
  <rect width="400" height="300" fill="#f6f9f9"/>
  <rect x="160" y="80" width="80" height="60" rx="30" fill="#d1faf8"/>
  <circle cx="200" cy="100" r="38" fill="#d1faf8"/>
  <ellipse cx="174" cy="88" rx="12" ry="18" fill="#b0f0ed" transform="rotate(-20,174,88)"/>
  <ellipse cx="226" cy="88" rx="12" ry="18" fill="#b0f0ed" transform="rotate(20,226,88)"/>
  <circle cx="191" cy="102" r="4" fill="#515167"/>
  <circle cx="209" cy="102" r="4" fill="#515167"/>
  <circle cx="200" cy="112" r="5" fill="#99e6e2"/>
  <path d="M190 118 Q200 125 210 118" stroke="#515167" stroke-width="2" fill="none" stroke-linecap="round"/>
  <rect x="165" y="135" width="70" height="80" rx="20" fill="#d1faf8"/>
  <rect x="170" y="205" width="16" height="30" rx="8" fill="#b0f0ed"/>
  <rect x="192" y="205" width="16" height="30" rx="8" fill="#b0f0ed"/>
  <rect x="174" y="205" width="16" height="28" rx="8" fill="#b0f0ed"/>
  <rect x="210" y="205" width="16" height="30" rx="8" fill="#b0f0ed"/>
  <path d="M235 155 Q258 145 255 170 Q252 185 235 180" fill="#d1faf8"/>
  <text x="200" y="270" text-anchor="middle" font-family="Arial,sans-serif" font-size="13" fill="#9ca3af">No photo available</text>
</svg>
