<svg width="20" height="21" viewBox="0 0 20 21" fill="none" xmlns="http://www.w3.org/2000/svg">
<g clip-path="url(#clip0_44_1422)">
<path d="M10.0024 6.25465C9.22236 6.25465 8.47426 6.57097 7.92269 7.13404C7.37111 7.6971 7.06124 8.46078 7.06124 9.25707C7.06124 10.0534 7.37111 10.817 7.92269 11.3801C8.47426 11.9432 9.22236 12.2595 10.0024 12.2595C10.7825 12.2595 11.5306 11.9432 12.0821 11.3801C12.6337 10.817 12.9436 10.0534 12.9436 9.25707C12.9436 8.46078 12.6337 7.6971 12.0821 7.13404C11.5306 6.57097 10.7825 6.25465 10.0024 6.25465ZM8.28673 9.25707C8.28673 8.79257 8.46749 8.34709 8.78924 8.01864C9.11099 7.69018 9.54738 7.50566 10.0024 7.50566C10.4574 7.50566 10.8938 7.69018 11.2156 8.01864C11.5373 8.34709 11.7181 8.79257 11.7181 9.25707C11.7181 9.72158 11.5373 10.1671 11.2156 10.4955C10.8938 10.824 10.4574 11.0085 10.0024 11.0085C9.54738 11.0085 9.11099 10.824 8.78924 10.4955C8.46749 10.1671 8.28673 9.72158 8.28673 9.25707ZM16.3725 14.5113L11.4274 19.8706C11.2441 20.0694 11.0229 20.2277 10.7774 20.3359C10.5319 20.4442 10.2674 20.5 9.99996 20.5C9.73256 20.5 9.46799 20.4442 9.22251 20.3359C8.97703 20.2277 8.75583 20.0694 8.57251 19.8706L3.62742 14.5113H3.64605L3.63771 14.5013L3.62742 14.4888C2.35815 12.9564 1.66326 11.0136 1.66664 9.00687C1.66664 4.30858 5.39751 0.5 9.99996 0.5C14.6024 0.5 18.3333 4.30858 18.3333 9.00687C18.3367 11.0136 17.6418 12.9564 16.3725 14.4888L16.3622 14.5013L16.3539 14.5113H16.3725ZM15.42 13.7012C16.5123 12.3915 17.1107 10.7269 17.1078 9.00687C17.1078 4.99963 13.9254 1.75101 9.99996 1.75101C6.07447 1.75101 2.89213 4.99963 2.89213 9.00687C2.88906 10.7269 3.48755 12.3915 4.57987 13.7012L4.73085 13.8828L9.46467 19.0125C9.53341 19.087 9.61636 19.1463 9.70842 19.1869C9.80047 19.2275 9.89968 19.2485 9.99996 19.2485C10.1002 19.2485 10.1994 19.2275 10.2915 19.1869C10.3836 19.1463 10.4665 19.087 10.5353 19.0125L15.2691 13.8828L15.42 13.7012Z" fill="#83859E"/>
</g>
<defs>
<clipPath id="clip0_44_1422">
<rect width="20" height="20" fill="white" transform="translate(0 0.5)"/>
</clipPath>
</defs>
</svg>
