<svg width="32" height="32" viewBox="0 0 32 32" fill="none" xmlns="http://www.w3.org/2000/svg">
<rect width="32" height="32" fill="#2828EA"/>
<path d="M21.1802 16.1784C21.5336 15.4347 21.7274 14.6022 21.7046 13.7143C21.6362 10.7617 19.1621 8.35312 16.1293 8.29763C12.9483 8.23103 10.3373 10.7062 10.3145 13.7808C10.2803 16.8222 12.8114 19.3418 15.9241 19.3751C16.6652 19.3751 17.3835 19.253 18.0333 19.0088C18.649 18.7757 19.3445 18.9311 19.812 19.3862C20.4163 19.9745 20.4733 20.9068 19.9488 21.5617L16.4371 25.9461C16.2205 26.2124 15.7986 26.2124 15.582 25.9461L9.60761 18.4871C8.55867 17.1329 8 15.5124 8 13.803C8 11.3278 9.21996 8.9858 11.2722 7.52065C12.6518 6.51058 14.305 6 16.0267 6C16.8704 6 17.7255 6.1332 18.5692 6.38849C20.9635 7.10996 22.9132 9.008 23.6543 11.3389C24.2814 13.3147 24.1446 15.357 23.278 17.1329C22.936 17.8322 21.9783 17.9987 21.4196 17.4548C21.0775 17.1218 20.9863 16.6113 21.1916 16.1784H21.1802Z" fill="white"/>
<path d="M15.149 13.0708H14.3965C14.3524 13.0708 14.3167 13.1056 14.3167 13.1485C14.3167 13.1914 14.3524 13.2262 14.3965 13.2262H15.149C15.193 13.2262 15.2288 13.1914 15.2288 13.1485C15.2288 13.1056 15.193 13.0708 15.149 13.0708Z" fill="white"/>
<path d="M15.7988 13.0708H15.4226C15.3785 13.0708 15.3428 13.1056 15.3428 13.1485C15.3428 13.1914 15.3785 13.2262 15.4226 13.2262H15.7988C15.8429 13.2262 15.8786 13.1914 15.8786 13.1485C15.8786 13.1056 15.8429 13.0708 15.7988 13.0708Z" fill="white"/>
<path d="M13.769 13.3478C13.769 13.3478 13.7348 13.3478 13.7234 13.3367L13.598 13.2146C13.598 13.2146 13.5752 13.1591 13.598 13.1369C13.6208 13.1147 13.655 13.1147 13.6778 13.1369L13.7576 13.2146L13.9971 12.9815C13.9971 12.9815 14.0541 12.9593 14.0769 12.9815C14.0997 13.0037 14.0997 13.037 14.0769 13.0592L13.8033 13.3256C13.8033 13.3256 13.7804 13.3367 13.7576 13.3367L13.769 13.3478Z" fill="#00FFD8"/>
<path d="M15.149 13.7588H14.3965C14.3524 13.7588 14.3167 13.7936 14.3167 13.8365C14.3167 13.8794 14.3524 13.9142 14.3965 13.9142H15.149C15.193 13.9142 15.2288 13.8794 15.2288 13.8365C15.2288 13.7936 15.193 13.7588 15.149 13.7588Z" fill="white"/>
<path d="M15.7988 13.7588H15.4226C15.3785 13.7588 15.3428 13.7936 15.3428 13.8365C15.3428 13.8794 15.3785 13.9142 15.4226 13.9142H15.7988C15.8429 13.9142 15.8786 13.8794 15.8786 13.8365C15.8786 13.7936 15.8429 13.7588 15.7988 13.7588Z" fill="white"/>
<path d="M13.769 14.0251C13.769 14.0251 13.7348 14.0251 13.7234 14.014L13.598 13.8919C13.598 13.8919 13.5752 13.8364 13.598 13.8142C13.6208 13.792 13.655 13.792 13.6778 13.8142L13.7576 13.8919L13.9971 13.6588C13.9971 13.6588 14.0541 13.6366 14.0769 13.6588C14.0997 13.681 14.0997 13.7143 14.0769 13.7365L13.8033 14.0029C13.8033 14.0029 13.7804 14.014 13.7576 14.014L13.769 14.0251Z" fill="#00FFD8"/>
<path d="M15.149 14.4468H14.3965C14.3524 14.4468 14.3167 14.4816 14.3167 14.5245C14.3167 14.5674 14.3524 14.6022 14.3965 14.6022H15.149C15.193 14.6022 15.2288 14.5674 15.2288 14.5245C15.2288 14.4816 15.193 14.4468 15.149 14.4468Z" fill="white"/>
<path d="M15.7988 14.4468H15.4226C15.3785 14.4468 15.3428 14.4816 15.3428 14.5245C15.3428 14.5674 15.3785 14.6022 15.4226 14.6022H15.7988C15.8429 14.6022 15.8786 14.5674 15.8786 14.5245C15.8786 14.4816 15.8429 14.4468 15.7988 14.4468Z" fill="white"/>
<path d="M13.769 14.7136C13.769 14.7136 13.7348 14.7136 13.7234 14.7025L13.598 14.5804C13.598 14.5804 13.5752 14.5249 13.598 14.5027C13.6208 14.4805 13.655 14.4805 13.6778 14.5027L13.7576 14.5804L13.9971 14.3473C13.9971 14.3473 14.0541 14.3251 14.0769 14.3473C14.0997 14.3695 14.0997 14.4028 14.0769 14.425L13.8033 14.6914C13.8033 14.6914 13.7804 14.7025 13.7576 14.7025L13.769 14.7136Z" fill="#00FFD8"/>
<path d="M14.8979 16.7782C13.2332 16.7782 11.8765 15.4573 11.8765 13.8368C11.8765 12.2162 13.2332 10.8954 14.8979 10.8954C15.2057 10.8954 15.4451 11.1396 15.4451 11.4282C15.4451 11.7168 15.1943 11.9609 14.8979 11.9609C13.8375 11.9609 12.9824 12.7934 12.9824 13.8257C12.9824 14.8579 13.8375 15.6904 14.8979 15.6904C15.4337 15.6904 15.9468 15.4684 16.3003 15.091H16.3117V11.4504C16.3801 11.1285 16.6195 10.9065 16.9045 10.8843C16.9159 10.8843 16.9273 10.8843 16.9387 10.8843C17.258 10.8843 17.5202 11.1396 17.5202 11.4504V15.2797C17.5202 15.4795 17.6798 15.6349 17.8851 15.6349H19.5839C19.7435 15.6349 19.8917 15.7015 20.0057 15.8125C20.1198 15.9235 20.1768 16.0789 20.1654 16.2343C20.1426 16.534 19.8917 16.756 19.5725 16.756H16.9501C16.8817 16.756 16.8019 16.7449 16.7449 16.7227H16.7221C16.5853 16.6672 16.4827 16.5784 16.4143 16.4563L16.3915 16.4119L16.3345 16.4341C15.9012 16.6672 15.3995 16.7782 14.9093 16.7782H14.8979Z" fill="white"/>
</svg>
