<svg width="11" height="7" viewBox="0 0 11 7" fill="none" xmlns="http://www.w3.org/2000/svg">
<path d="M0.998265 1.00763L0.998265 1.00763C1.0949 0.908069 1.22633 0.850818 1.3649 0.850818C1.50345 0.850818 1.63486 0.908049 1.73149 1.00757L1.73143 1.00752L1.6239 1.1121L1.73154 1.00763L5.4996 4.8819L9.22531 1.05118V1.05045L9.26767 1.00681C9.3643 0.907251 9.49573 0.85 9.63431 0.85C9.7728 0.85 9.90416 0.907184 10.0008 1.00664C10.0008 1.00669 10.0009 1.00675 10.0009 1.00681L9.89331 1.11128C9.92707 1.14596 9.95391 1.18742 9.97223 1.23322C9.99056 1.27901 10 1.32822 10 1.37793C10 1.42763 9.99056 1.47684 9.97223 1.52264C9.95391 1.56843 9.92707 1.60989 9.89331 1.64457L0.998265 1.00763ZM0.998265 1.00763L0.998103 1.00779C0.950716 1.05677 0.913482 1.11478 0.888202 1.17824C0.862926 1.24169 0.85 1.30955 0.85 1.37793C0.85 1.4463 0.862926 1.51416 0.888202 1.57761C0.913482 1.64107 0.950715 1.69908 0.998103 1.74806L0.998103 1.74806L0.99836 1.74832L5.12143 5.98846L5.12144 5.98848C5.22123 6.09107 5.35677 6.15 5.4996 6.15C5.64244 6.15 5.77797 6.09107 5.87776 5.98848L5.87777 5.98847L10.0008 1.74922L0.998265 1.00763Z" fill="#818181" stroke="#818181" stroke-width="0.3"/>
</svg>
