<svg xmlns="http://www.w3.org/2000/svg" width="39" height="39" viewBox="0 0 39 39" fill="none"><path d="M35.9443 38.2497C35.676 38.2512 35.4101 38.1991 35.1625 38.0963C34.9148 37.9936 34.6904 37.8423 34.5026 37.6515L28.0346 31.1713C24.978 33.5923 21.1865 34.9082 17.2808 34.9036C13.3752 34.8989 9.58679 33.574 6.53603 31.1458C3.48526 28.7175 1.35289 25.3298 0.488063 21.5374C-0.376764 17.7449 0.0772007 13.7725 1.77563 10.2705C3.47405 6.76843 6.31629 3.94437 9.83696 2.26069C13.3576 0.577002 17.3481 0.133462 21.155 1.00269C24.9618 1.87192 28.3595 4.00241 30.7916 7.04532C33.2238 10.0882 34.5463 13.8632 34.5426 17.7522C34.5584 21.5723 33.2777 25.2857 30.9081 28.2901L37.4362 34.7902C37.6284 34.9761 37.7813 35.1984 37.8857 35.4442C37.99 35.6899 38.0438 35.954 38.0438 36.2208C38.0438 36.4877 37.99 36.7518 37.8857 36.9975C37.7813 37.2432 37.6284 37.4656 37.4362 37.6515C37.2425 37.8484 37.01 38.0033 36.7532 38.1062C36.4964 38.2092 36.221 38.258 35.9443 38.2497ZM17.2513 4.63225C13.7594 4.63225 10.4105 6.01348 7.94134 8.47208C5.47219 10.9307 4.08503 14.2653 4.08503 17.7422C4.08503 21.2192 5.47219 24.5538 7.94134 27.0124C10.4105 29.471 13.7594 30.8522 17.2513 30.8522C20.3442 30.8492 23.3381 29.7661 25.7117 27.7916C25.982 27.5623 26.2824 27.2931 26.5528 27.0139C28.3941 25.1811 29.6484 22.8457 30.157 20.3032C30.6656 17.7606 30.4057 15.125 29.4101 12.7295C28.4146 10.3339 26.7281 8.28612 24.5639 6.84486C22.3997 5.4036 19.8549 4.63362 17.2513 4.63225Z" fill="#02C5BD"></path><path d="M20.7826 24.0523C19.5337 24.0591 18.3225 23.6267 17.3624 22.8314C16.4047 23.6322 15.1927 24.0686 13.9421 24.063C12.5159 24.063 11.1481 23.4988 10.1395 22.4946C9.13103 21.4904 8.56445 20.1284 8.56445 18.7083V18.2799H10.5434V18.7083C10.5438 19.3252 10.7125 19.9304 11.0314 20.4593C11.3503 20.9882 11.8075 21.4209 12.3541 21.7112C12.9008 22.0015 13.5164 22.1385 14.1352 22.1076C14.7539 22.0766 15.3527 21.8789 15.8674 21.5355C14.2325 20.2183 13.243 17.0911 13.2 16.9412L13.0925 16.6092L13.4044 16.4379C14.6406 15.7482 16.0314 15.3799 17.4484 15.3669C18.836 15.3448 20.2013 15.7162 21.3849 16.4379L21.643 16.6199L21.5462 16.9091C21.5462 17.059 20.5244 20.1754 18.8896 21.4927C19.4526 21.8786 20.1206 22.0841 20.8041 22.0817C21.7122 22.0817 22.5832 21.7233 23.2264 21.0849C23.8695 20.4465 24.2322 19.5803 24.2351 18.6761V18.2477H26.1388V18.6761C26.1416 19.3793 26.0053 20.0762 25.7376 20.7269C25.47 21.3777 25.0763 21.9695 24.5789 22.4688C24.0815 22.968 23.4903 23.3648 22.8389 23.6365C22.1875 23.9082 21.4888 24.0495 20.7826 24.0523Z" fill="#02C5BD"></path><path d="M14.6519 14.3174C15.531 14.3174 16.2437 13.6077 16.2437 12.7324C16.2437 11.857 15.531 11.1474 14.6519 11.1474C13.7727 11.1474 13.0601 11.857 13.0601 12.7324C13.0601 13.6077 13.7727 14.3174 14.6519 14.3174Z" fill="#02C5BD"></path><path d="M19.9973 14.3174C20.8764 14.3174 21.5891 13.6077 21.5891 12.7324C21.5891 11.857 20.8764 11.1474 19.9973 11.1474C19.1182 11.1474 18.4055 11.857 18.4055 12.7324C18.4055 13.6077 19.1182 14.3174 19.9973 14.3174Z" fill="#02C5BD"></path></svg>